<?xml version="1.0" standalone="no"?>
<!DOCTYPE svg PUBLIC "-//W3C//DTD SVG 1.0//EN" "http://www.w3.org/TR/2001/REC-SVG-20010904/DTD/svg10.dtd">
<svg xmlns="http://www.w3.org/2000/svg" xmlns:xlink="http://www.w3.org/1999/xlink" id="body_1" width="48" height="29">

<defs>
    <clipPath  id="1">

    <path id=""  clip-rule="evenodd" transform="matrix(1 0 0 1 0 0)"  d="M0 -0.5L36 -0.5L36 -0.5L36 22L36 22L1.3777277E-15 22L1.3777277E-15 22L0 -0.5z" />    </clipPath>
</defs>

<g transform="matrix(1.3333 0 0 1.3333 0 0)">
	<g clip-path="url(#1)" >
    <path id=""  transform="matrix(1 0 0 -1 0 22)"  d="M31.77 22.22992L31.77 22.22992L31.77 22.22992L18 8.489925L18 8.489925L4.2299995 22.22992L4.2299995 22.22992L0 17.999918L0 17.999918L18 -7.43866E-05L18 -7.43866E-05L35.999996 17.999918L35.999996 17.999918L31.77 22.22992z" stroke="#FFFFFF" stroke-width="1" fill="#fff" fill-rule="nonzero" />
	</g>
</g>
</svg>